<svg xmlns="http://www.w3.org/2000/svg" style="max-width:460px" viewBox="0 0 460 290"><g><defs><marker id="a" refX="6" refY="2" markerWidth="6" markerHeight="4" orient="auto"><path d="M0 0v4l6-2z"/></marker></defs><path stroke="#000" d="M50 30h40"/><text x="55" y="24" font-size="16" fill="green">3.00</text><text x="55" y="47" font-size="16" fill="red">-8.00</text><text x="45" y="24" font-size="16" text-anchor="end">x</text><path stroke="#000" d="M50 100h40"/><text x="55" y="94" font-size="16" fill="green">-4.00</text><text x="55" y="117" font-size="16" fill="red">6.00</text><text x="45" y="94" font-size="16" text-anchor="end">y</text><path stroke="#000" d="M50 170h40"/><text x="55" y="164" font-size="16" fill="green">2.00</text><text x="55" y="187" font-size="16" fill="red">2.00</text><text x="45" y="164" font-size="16" text-anchor="end">z</text><path stroke="#000" d="M50 240h40"/><text x="55" y="234" font-size="16" fill="green">-1.00</text><text x="55" y="257" font-size="16" fill="red">0.00</text><text x="45" y="234" font-size="16" text-anchor="end">w</text><path stroke="#000" d="M170 65h40"/><text x="175" y="59" font-size="16" fill="green">-12.00</text><text x="175" y="82" font-size="16" fill="red">2.00</text><circle cx="130" cy="65" fill="#fff" stroke="#000" r="20"/><text x="130" y="75" font-size="20" text-anchor="middle">*</text><path stroke="#000" marker-end="url(#a)" d="M90 30l20 35M90 100l20-35M150 65h20"/><path stroke="#000" d="M170 205h40"/><text x="175" y="199" font-size="16" fill="green">2.00</text><text x="175" y="222" font-size="16" fill="red">2.00</text><circle cx="130" cy="205" fill="#fff" stroke="#000" r="20"/><text x="130" y="210" font-size="20" text-anchor="middle">max</text><path stroke="#000" marker-end="url(#a)" d="M90 170l20 35M90 240l20-35M150 205h20"/><path stroke="#000" d="M290 135h40"/><text x="295" y="129" font-size="16" fill="green">-10.00</text><text x="295" y="152" font-size="16" fill="red">2.00</text><circle cx="250" cy="135" fill="#fff" stroke="#000" r="20"/><text x="250" y="140" font-size="20" text-anchor="middle">+</text><path stroke="#000" marker-end="url(#a)" d="M210 65l20 70M210 205l20-70M270 135h20"/><path stroke="#000" d="M410 135h40"/><text x="415" y="129" font-size="16" fill="green">-20.00</text><text x="415" y="152" font-size="16" fill="red">1.00</text><circle cx="370" cy="135" fill="#fff" stroke="#000" r="20"/><text x="370" y="140" font-size="20" text-anchor="middle">*2</text><path stroke="#000" marker-end="url(#a)" d="M330 135h20M390 135h20"/></g></svg>