<svg xmlns="http://www.w3.org/2000/svg" style="max-width:799px" viewBox="0 0 799 306"><g transform="scale(.8)"><defs><marker id="a" refX="6" refY="2" markerWidth="6" markerHeight="4" orient="auto"><path d="M0 0v4l6-2z"/></marker></defs><path stroke="#000" d="M410 222h40"/><text x="405" y="216" font-size="16" fill="green">a=1.00</text><text x="415" y="239" font-size="16" fill="red">0.20</text><path stroke="#000" d="M530 222h40"/><text x="525" y="216" font-size="16" fill="green">b=-1.00</text><text x="535" y="239" font-size="16" fill="red">-0.20</text><circle cx="490" cy="222" fill="#fff" stroke="#000" r="20"/><text x="490" y="227" font-size="20" text-anchor="middle">*-1</text><path stroke="#000" marker-end="url(#a)" d="M450 222h20M510 222h20"/><path stroke="#000" d="M650 222h40"/><text x="651" y="216" font-size="16" fill="green">c=0.37</text><text x="655" y="239" font-size="16" fill="red">-0.53</text><circle cx="610" cy="222" fill="#fff" stroke="#000" r="20"/><text x="610" y="227" font-size="20" text-anchor="middle">exp</text><path stroke="#000" marker-end="url(#a)" d="M570 222h20M630 222h20"/><path stroke="#000" d="M770 222h40"/><text x="771" y="216" font-size="16" fill="green">d=1.37</text><text x="775" y="239" font-size="16" fill="red">-0.53</text><circle cx="730" cy="222" fill="#fff" stroke="#000" r="20"/><text x="730" y="227" font-size="20" text-anchor="middle">+1</text><path stroke="#000" marker-end="url(#a)" d="M690 222h20M750 222h20"/><path stroke="#000" d="M890 222h40"/><text x="890" y="216" font-size="16" fill="green">e=0.73</text><text x="895" y="239" font-size="16" fill="red">1.00</text><circle cx="850" cy="222" fill="#fff" stroke="#000" r="20"/><text x="850" y="227" font-size="20" text-anchor="middle">1/x</text><path stroke="#000" marker-end="url(#a)" d="M810 222h20M870 222h20"/></g></svg>