<svg xmlns="http://www.w3.org/2000/svg" style="max-width:799px" viewBox="0 0 799 306"><g transform="scale(.8)"><defs><marker id="a" refX="6" refY="2" markerWidth="6" markerHeight="4" orient="auto"><path d="M0 0v4l6-2z"/></marker></defs><path stroke="#000" d="M50 30h40"/><text x="55" y="24" font-size="16" fill="green">2.00</text><text x="55" y="47" font-size="16" fill="red">-0.20</text><text x="45" y="24" font-size="16" text-anchor="end">w0</text><path stroke="#000" d="M50 100h40"/><text x="55" y="94" font-size="16" fill="green">-1.00</text><text x="55" y="117" font-size="16" fill="red">0.39</text><text x="45" y="94" font-size="16" text-anchor="end">x0</text><path stroke="#000" d="M50 170h40"/><text x="55" y="164" font-size="16" fill="green">-3.00</text><text x="55" y="187" font-size="16" fill="red">-0.39</text><text x="45" y="164" font-size="16" text-anchor="end">w1</text><path stroke="#000" d="M50 240h40"/><text x="55" y="234" font-size="16" fill="green">-2.00</text><text x="55" y="257" font-size="16" fill="red">-0.59</text><text x="45" y="234" font-size="16" text-anchor="end">x1</text><path stroke="#000" d="M50 310h40"/><text x="55" y="304" font-size="16" fill="green">-3.00</text><text x="55" y="327" font-size="16" fill="red">0.20</text><text x="45" y="304" font-size="16" text-anchor="end">w2</text><path stroke="#000" d="M170 65h40"/><text x="175" y="59" font-size="16" fill="green">-2.00</text><text x="175" y="82" font-size="16" fill="red">0.20</text><circle cx="130" cy="65" fill="#fff" stroke="#000" r="20"/><text x="130" y="75" font-size="20" text-anchor="middle">*</text><path stroke="#000" marker-end="url(#a)" d="M90 30l20 35M90 100l20-35M150 65h20"/><path stroke="#000" d="M170 205h40"/><text x="175" y="199" font-size="16" fill="green">6.00</text><text x="175" y="222" font-size="16" fill="red">0.20</text><circle cx="130" cy="205" fill="#fff" stroke="#000" r="20"/><text x="130" y="215" font-size="20" text-anchor="middle">*</text><path stroke="#000" marker-end="url(#a)" d="M90 170l20 35M90 240l20-35M150 205h20"/><path stroke="#000" d="M290 135h40"/><text x="295" y="129" font-size="16" fill="green">4.00</text><text x="295" y="152" font-size="16" fill="red">0.20</text><circle cx="250" cy="135" fill="#fff" stroke="#000" r="20"/><text x="250" y="140" font-size="20" text-anchor="middle">+</text><path stroke="#000" marker-end="url(#a)" d="M210 65l20 70M210 205l20-70M270 135h20"/><path stroke="#000" d="M410 222h40"/><text x="408" y="216" font-size="16" fill="green">a=1.00</text><text x="415" y="239" font-size="16" fill="red">0.20</text><circle cx="370" cy="222" fill="#fff" stroke="#000" r="20"/><text x="370" y="227" font-size="20" text-anchor="middle">+</text><path stroke="#000" marker-end="url(#a)" d="M330 135l20 87M90 310l260-88M390 222h20"/><path stroke="#000" d="M530 222h40"/><text x="527" y="216" font-size="16" fill="green">b=-1.00</text><text x="535" y="239" font-size="16" fill="red">-0.20</text><circle cx="490" cy="222" fill="#fff" stroke="#000" r="20"/><text x="490" y="227" font-size="20" text-anchor="middle">*-1</text><path stroke="#000" marker-end="url(#a)" d="M450 222h20M510 222h20"/><path stroke="#000" d="M650 222h40"/><text x="650" y="216" font-size="16" fill="green">c=0.37</text><text x="655" y="239" font-size="16" fill="red">-0.53</text><circle cx="610" cy="222" fill="#fff" stroke="#000" r="20"/><text x="610" y="227" font-size="20" text-anchor="middle">exp</text><path stroke="#000" marker-end="url(#a)" d="M570 222h20M630 222h20"/><path stroke="#000" d="M770 222h40"/><text x="771" y="216" font-size="16" fill="green">d=1.37</text><text x="775" y="239" font-size="16" fill="red">-0.53</text><circle cx="730" cy="222" fill="#fff" stroke="#000" r="20"/><text x="730" y="227" font-size="20" text-anchor="middle">+1</text><path stroke="#000" marker-end="url(#a)" d="M690 222h20M750 222h20"/><path stroke="#000" d="M890 222h40"/><text x="888" y="216" font-size="16" fill="green">e=0.73</text><text x="895" y="239" font-size="16" fill="red">1.00</text><circle cx="850" cy="222" fill="#fff" stroke="#000" r="20"/><text x="850" y="227" font-size="20" text-anchor="middle">1/x</text><path stroke="#000" marker-end="url(#a)" d="M810 222h20M870 222h20"/></g></svg>